<mxfile host="app.diagrams.net" modified="2021-05-28T09:44:19.412Z" agent="5.0 (Macintosh; Intel Mac OS X 10_15_7) AppleWebKit/537.36 (KHTML, like Gecko) Chrome/86.0.4240.193 Safari/537.36" etag="XS7ku9bSrMR1JArl9-BG" version="14.7.2" type="github">
  <diagram id="Q1PszmerHpHR-WY7jRg5" name="Page-1">
    <mxGraphModel dx="946" dy="536" grid="1" gridSize="10" guides="1" tooltips="1" connect="1" arrows="1" fold="1" page="1" pageScale="1" pageWidth="827" pageHeight="1169" math="0" shadow="0">
      <root>
        <mxCell id="0" />
        <mxCell id="1" parent="0" />
        <mxCell id="AyUE7jmxqMXwNRpZoPKw-9" style="edgeStyle=orthogonalEdgeStyle;rounded=0;orthogonalLoop=1;jettySize=auto;html=1;exitX=1;exitY=0.5;exitDx=0;exitDy=0;entryX=1;entryY=0.5;entryDx=0;entryDy=0;" edge="1" parent="1" source="AyUE7jmxqMXwNRpZoPKw-1" target="AyUE7jmxqMXwNRpZoPKw-8">
          <mxGeometry relative="1" as="geometry" />
        </mxCell>
        <mxCell id="AyUE7jmxqMXwNRpZoPKw-1" value="" style="rounded=1;whiteSpace=wrap;html=1;fillColor=#dae8fc;strokeColor=#6c8ebf;" vertex="1" parent="1">
          <mxGeometry x="110" y="105" width="130" height="150" as="geometry" />
        </mxCell>
        <mxCell id="AyUE7jmxqMXwNRpZoPKw-2" value="" style="rounded=1;whiteSpace=wrap;html=1;fillColor=#fff2cc;strokeColor=#d6b656;" vertex="1" parent="1">
          <mxGeometry x="560" y="150" width="120" height="60" as="geometry" />
        </mxCell>
        <mxCell id="AyUE7jmxqMXwNRpZoPKw-7" value="&lt;pre&gt;RpcRequest&lt;/pre&gt;&lt;pre&gt;接口名，方法名&lt;/pre&gt;&lt;pre&gt;方法类型，方法参数&lt;/pre&gt;" style="rounded=1;whiteSpace=wrap;html=1;arcSize=7;fillColor=#ffe6cc;strokeColor=#d79b00;" vertex="1" parent="1">
          <mxGeometry x="330" y="60" width="136" height="100" as="geometry" />
        </mxCell>
        <mxCell id="AyUE7jmxqMXwNRpZoPKw-10" style="edgeStyle=orthogonalEdgeStyle;rounded=0;orthogonalLoop=1;jettySize=auto;html=1;exitX=1;exitY=0.5;exitDx=0;exitDy=0;entryX=0;entryY=0.5;entryDx=0;entryDy=0;" edge="1" parent="1" source="AyUE7jmxqMXwNRpZoPKw-8" target="AyUE7jmxqMXwNRpZoPKw-2">
          <mxGeometry relative="1" as="geometry">
            <mxPoint x="550" y="180" as="targetPoint" />
          </mxGeometry>
        </mxCell>
        <mxCell id="AyUE7jmxqMXwNRpZoPKw-8" value="动态代理对象" style="rounded=1;whiteSpace=wrap;html=1;fillColor=#d5e8d4;strokeColor=#82b366;" vertex="1" parent="1">
          <mxGeometry x="135" y="155" width="80" height="50" as="geometry" />
        </mxCell>
        <mxCell id="AyUE7jmxqMXwNRpZoPKw-11" value="Consumer端" style="text;html=1;strokeColor=none;fillColor=none;align=center;verticalAlign=middle;whiteSpace=wrap;rounded=0;" vertex="1" parent="1">
          <mxGeometry x="132.5" y="120" width="85" height="20" as="geometry" />
        </mxCell>
        <mxCell id="AyUE7jmxqMXwNRpZoPKw-13" value="Producer端" style="text;html=1;strokeColor=none;fillColor=none;align=center;verticalAlign=middle;whiteSpace=wrap;rounded=0;" vertex="1" parent="1">
          <mxGeometry x="577.5" y="170" width="85" height="20" as="geometry" />
        </mxCell>
      </root>
    </mxGraphModel>
  </diagram>
</mxfile>
